<svg width="15" height="10" viewBox="0 0 15 10" fill="none" xmlns="http://www.w3.org/2000/svg">
<path d="M4.55059 4.27725C4.54848 4.78341 4.55059 5.28954 4.55274 5.79568C5.40129 5.82333 6.25193 5.81055 7.10048 5.82333C6.7262 7.70543 4.1657 8.31576 2.81102 7.08658C1.41804 6.00836 1.48396 3.64353 2.93223 2.64187C3.94452 1.83374 5.38427 2.03363 6.39653 2.73331C6.79424 2.36541 7.16637 1.97197 7.52578 1.56365C6.68364 0.891629 5.65009 0.413126 4.55059 0.464179C2.25595 0.387613 0.146298 2.3973 0.108029 4.69197C-0.0387256 6.56766 1.19474 8.40723 2.93649 9.07075C4.67183 9.73851 6.89632 9.28341 8.00431 7.72457C8.73588 6.73993 8.89325 5.47245 8.80819 4.28151C7.38755 4.27087 5.96909 4.27299 4.55059 4.27725Z" fill="#6D747A"/>
<path d="M12.8487 4.27101C12.8445 3.84779 12.8423 3.42246 12.8402 2.99927C12.417 2.99927 11.9959 2.99927 11.5749 2.99927C11.5706 3.42248 11.5664 3.84567 11.5642 4.27101C11.1389 4.27312 10.7157 4.27527 10.2925 4.27953C10.2925 4.70272 10.2925 5.12379 10.2925 5.54489C10.7157 5.54915 11.141 5.55341 11.5642 5.55765C11.5685 5.98086 11.5685 6.40405 11.5727 6.82727C11.996 6.82727 12.417 6.82727 12.8402 6.82727C12.8423 6.40405 12.8445 5.98086 12.8487 5.55553C13.274 5.55127 13.6973 5.54915 14.1205 5.54489C14.1205 5.12379 14.1205 4.7006 14.1205 4.27953C13.6973 4.27527 13.2719 4.27527 12.8487 4.27101Z" fill="#6D747A"/>
</svg>
