<svg width="14" height="14" viewBox="0 0 14 14" fill="none" xmlns="http://www.w3.org/2000/svg">
<path d="M7 0.171875C5.14598 0.171875 4.9135 0.179734 4.18537 0.212956C3.45875 0.246125 2.9625 0.36151 2.52825 0.530278C2.07933 0.704738 1.69863 0.938164 1.31911 1.31768C0.939601 1.69719 0.706176 2.0779 0.531716 2.52681C0.362947 2.96103 0.247562 3.45729 0.214394 4.1839C0.181171 4.91204 0.17334 5.14451 0.17334 6.99853C0.17334 8.85252 0.181171 9.085 0.214394 9.81314C0.247562 10.5398 0.362947 11.036 0.531716 11.4702C0.706176 11.9191 0.939601 12.2998 1.31911 12.6794C1.69863 13.0589 2.07933 13.2923 2.52825 13.4668C2.9625 13.6355 3.45875 13.7509 4.18537 13.7841C4.9135 13.8173 5.14598 13.8252 7 13.8252C8.85399 13.8252 9.08646 13.8173 9.8146 13.7841C10.5412 13.7509 11.0375 13.6355 11.4717 13.4668C11.9206 13.2923 12.3013 13.0589 12.6809 12.6794C13.0604 12.2998 13.2938 11.9191 13.4682 11.4702C13.637 11.036 13.7524 10.5398 13.7855 9.81314C13.8188 9.085 13.8266 8.85252 13.8266 6.99853C13.8266 5.14451 13.8188 4.91204 13.7855 4.1839C13.7524 3.45729 13.637 2.96103 13.4682 2.52681C13.2938 2.0779 13.0604 1.69719 12.6809 1.31768C12.3013 0.938164 11.9206 0.704738 11.4717 0.530278C11.0375 0.36151 10.5412 0.246125 9.8146 0.212956C9.08646 0.179734 8.85399 0.171875 7 0.171875ZM7 1.40193C8.82277 1.40193 9.03869 1.40886 9.75853 1.44171C10.4241 1.47208 10.7856 1.5833 11.0261 1.67676C11.3448 1.8006 11.5722 1.94855 11.8111 2.18743C12.05 2.4263 12.1979 2.65374 12.3217 2.97236C12.4152 3.21291 12.5264 3.57438 12.5568 4.23997C12.5896 4.95981 12.5966 5.17573 12.5966 6.99853C12.5966 8.82131 12.5896 9.03723 12.5568 9.75707C12.5264 10.4227 12.4152 10.7841 12.3217 11.0247C12.1979 11.3433 12.05 11.5707 11.8111 11.8096C11.5722 12.0485 11.3448 12.1964 11.0261 12.3203C10.7856 12.4138 10.4241 12.525 9.75853 12.5553C9.0388 12.5882 8.82291 12.5951 7 12.5951C5.17706 12.5951 4.96119 12.5882 4.24143 12.5553C3.57584 12.525 3.21438 12.4138 2.97382 12.3203C2.65517 12.1964 2.42776 12.0485 2.18886 11.8096C1.94999 11.5707 1.80204 11.3433 1.67822 11.0247C1.58473 10.7841 1.47352 10.4227 1.44314 9.75707C1.4103 9.03723 1.40336 8.82131 1.40336 6.99853C1.40336 5.17573 1.4103 4.95981 1.44314 4.23997C1.47352 3.57438 1.58473 3.21291 1.67822 2.97236C1.80204 2.65374 1.94999 2.4263 2.18886 2.18743C2.42776 1.94855 2.65517 1.8006 2.97382 1.67676C3.21438 1.5833 3.57584 1.47208 4.24143 1.44171C4.96128 1.40886 5.1772 1.40193 7 1.40193Z" fill="#6D747A"/>
<path d="M7.00021 9.28063C5.74344 9.28063 4.72465 8.26184 4.72465 7.0051C4.72465 5.74833 5.74344 4.72954 7.00021 4.72954C8.25696 4.72954 9.27575 5.74833 9.27575 7.0051C9.27575 8.26184 8.25696 9.28063 7.00021 9.28063ZM7.00021 3.49951C5.06411 3.49951 3.49463 5.069 3.49463 7.0051C3.49463 8.94117 5.06411 10.5107 7.00021 10.5107C8.93629 10.5107 10.5058 8.94117 10.5058 7.0051C10.5058 5.069 8.93629 3.49951 7.00021 3.49951Z" fill="#6D747A"/>
<path d="M11.4631 3.35068C11.4631 3.80311 11.0963 4.16986 10.6439 4.16986C10.1915 4.16986 9.82471 3.80311 9.82471 3.35068C9.82471 2.89824 10.1915 2.53149 10.6439 2.53149C11.0963 2.53149 11.4631 2.89824 11.4631 3.35068Z" fill="#6D747A"/>
</svg>
