<svg width="16" height="14" viewBox="0 0 16 14" fill="none" xmlns="http://www.w3.org/2000/svg">
<path d="M5.03169 13.5008C11.0694 13.5008 14.3718 8.49859 14.3718 4.16066C14.3718 4.01859 14.3718 3.87716 14.3623 3.73634C15.0047 3.27163 15.5593 2.69628 16 2.03716C15.4009 2.30263 14.7653 2.47669 14.1146 2.55363C14.7997 2.1435 15.3128 1.49794 15.5577 0.737938C14.9134 1.12028 14.2084 1.38978 13.4733 1.53475C12.8526 0.874719 11.9857 0.5 11.0798 0.5C9.27719 0.5 7.79397 1.98325 7.79397 3.78575C7.79397 4.03581 7.82253 4.28509 7.87903 4.52866C5.24097 4.39644 2.77966 3.14863 1.11359 1.09891C0.247219 2.59034 0.6955 4.52316 2.12991 5.48097C1.60756 5.4655 1.09644 5.32456 0.64 5.07009V5.11169C0.640437 6.66838 1.74772 8.02141 3.27359 8.32963C2.79034 8.46141 2.28319 8.48066 1.79138 8.38594C2.22034 9.71984 3.45734 10.6393 4.85825 10.6656C3.69606 11.579 2.25959 12.0751 0.781438 12.0736C0.52025 12.0731 0.259313 12.0573 0 12.0262C1.50106 12.9895 3.24813 13.5006 5.03169 13.4983" fill="#6D747A"/>
</svg>
