<svg width="16" height="12" viewBox="0 0 16 12" fill="none" xmlns="http://www.w3.org/2000/svg">
<path d="M14.8871 2.52748C14.7217 1.90501 14.2346 1.41473 13.6161 1.24833C12.4951 0.946045 7.99996 0.946045 7.99996 0.946045C7.99996 0.946045 3.50481 0.946045 2.38375 1.24836C1.76528 1.41476 1.27819 1.90501 1.11287 2.52751C0.8125 3.6558 0.8125 6.00995 0.8125 6.00995C0.8125 6.00995 0.8125 8.36414 1.11287 9.49239C1.27819 10.1149 1.76528 10.5847 2.38375 10.7512C3.50481 11.0535 7.99996 11.0535 7.99996 11.0535C7.99996 11.0535 12.4951 11.0535 13.6161 10.7511C14.2346 10.5847 14.7217 10.1149 14.8871 9.49236C15.1874 8.36411 15.1874 6.00992 15.1874 6.00992C15.1874 6.00992 15.1874 3.6558 14.8871 2.52748Z" fill="#6D747A"/>
<path d="M6.52979 8.14685V3.87207L10.2869 6.00951L6.52979 8.14685Z" fill="#EBEDF0"/>
</svg>
